<svg xmlns="http://www.w3.org/2000/svg" viewBox="0 0 400 300" width="400" height="300"><defs><radialGradient id="bg" cx="50%" cy="40%" r="70%"><stop offset="0%" stop-color="#eff6ff"/><stop offset="100%" stop-color="#dbeafe"/></radialGradient><radialGradient id="p" cx="35%" cy="30%" r="80%"><stop offset="0%" stop-color="#93c5fd"/><stop offset="100%" stop-color="#2563eb"/></radialGradient><radialGradient id="p2" cx="35%" cy="30%" r="80%"><stop offset="0%" stop-color="#f9a8d4"/><stop offset="100%" stop-color="#db2777"/></radialGradient></defs>
<rect width="400" height="300" fill="url(#bg)"/>
<circle cx="30" cy="30" r="8" fill="#bfdbfe"/><circle cx="370" cy="30" r="8" fill="#bfdbfe"/><circle cx="30" cy="270" r="8" fill="#bfdbfe"/><circle cx="370" cy="270" r="8" fill="#bfdbfe"/>
<!-- Baby shower balloons -->
<!-- Balloon 1 blue -->
<ellipse cx="145" cy="140" rx="38" ry="48" fill="url(#p)" opacity=".9"/>
<ellipse cx="133" cy="122" rx="10" ry="7" fill="rgba(255,255,255,.28)"/>
<path d="M145 188 Q140 200 145 210 Q150 200 145 188" stroke="#2563eb" stroke-width="2" fill="none"/>
<!-- Balloon 2 pink -->
<ellipse cx="255" cy="130" rx="34" ry="44" fill="url(#p2)" opacity=".88"/>
<ellipse cx="244" cy="114" rx="9" ry="6" fill="rgba(255,255,255,.28)"/>
<path d="M255 174 Q250 186 255 196 Q260 186 255 174" stroke="#db2777" stroke-width="2" fill="none"/>
<!-- Balloon 3 yellow center -->
<ellipse cx="200" cy="120" rx="30" ry="40" fill="#fbbf24" opacity=".92"/>
<ellipse cx="190" cy="105" rx="8" ry="5.5" fill="rgba(255,255,255,.3)"/>
<path d="M200 160 Q195 172 200 182 Q205 172 200 160" stroke="#d97706" stroke-width="2" fill="none"/>
<!-- Strings -->
<path d="M145 210 Q155 235 160 250" stroke="#93c5fd" stroke-width="1.5" fill="none"/>
<path d="M255 196 Q250 222 245 250" stroke="#f9a8d4" stroke-width="1.5" fill="none"/>
<path d="M200 182 Q200 215 200 250" stroke="#fcd34d" stroke-width="1.5" fill="none"/>
<rect x="100" y="262" width="200" height="26" rx="13" fill="rgba(37,99,235,.1)"/>
<text x="200" y="280" text-anchor="middle" font-family="Arial,sans-serif" font-size="12" font-weight="700" fill="#2563eb">Pieza de EVA · Nivaldete B.</text>
</svg>
