<svg xmlns="http://www.w3.org/2000/svg" viewBox="0 0 400 300" width="400" height="300"><defs><radialGradient id="bg" cx="50%" cy="40%" r="70%"><stop offset="0%" stop-color="#f5f3ff"/><stop offset="100%" stop-color="#ede9fe"/></radialGradient><radialGradient id="p" cx="35%" cy="30%" r="80%"><stop offset="0%" stop-color="#c4b5fd"/><stop offset="100%" stop-color="#7c3aed"/></radialGradient></defs>
<rect width="400" height="300" fill="url(#bg)"/>
<circle cx="30" cy="30" r="8" fill="#ede9fe"/><circle cx="370" cy="30" r="8" fill="#ede9fe"/><circle cx="30" cy="270" r="8" fill="#ede9fe"/><circle cx="370" cy="270" r="8" fill="#ede9fe"/>
<circle cx="80" cy="60" r="5" fill="#ddd6fe" opacity=".7"/><circle cx="320" cy="60" r="5" fill="#ddd6fe" opacity=".7"/>
<!-- 3 flowers -->
<!-- Flower left -->
<rect x="109" y="195" width="5" height="45" rx="2.5" fill="#4ade80"/>
<ellipse cx="106" cy="218" rx="12" ry="6" fill="#22c55e" transform="rotate(-35 106 218)"/>
<ellipse cx="200" cy="100" rx="14" ry="25" fill="url(#p)" opacity=".9" transform="rotate(0 145 155)"/>
<ellipse cx="200" cy="100" rx="14" ry="25" fill="url(#p)" opacity=".85" transform="rotate(60 145 155)"/>
<ellipse cx="200" cy="100" rx="14" ry="25" fill="url(#p)" opacity=".85" transform="rotate(120 145 155)"/>
<ellipse cx="200" cy="100" rx="14" ry="25" fill="url(#p)" opacity=".85" transform="rotate(180 145 155)"/>
<ellipse cx="200" cy="100" rx="14" ry="25" fill="url(#p)" opacity=".85" transform="rotate(240 145 155)"/>
<ellipse cx="200" cy="100" rx="14" ry="25" fill="url(#p)" opacity=".85" transform="rotate(300 145 155)"/>
<circle cx="145" cy="155" r="18" fill="#fbbf24"/><circle cx="145" cy="155" r="11" fill="#fde68a"/><circle cx="140" cy="150" r="4" fill="rgba(255,255,255,.4)"/>
<!-- Flower center -->
<rect x="197" y="185" width="6" height="50" rx="3" fill="#4ade80"/>
<ellipse cx="186" cy="213" rx="13" ry="6" fill="#22c55e" transform="rotate(-35 186 213)"/>
<ellipse cx="200" cy="108" rx="20" ry="35" fill="url(#p)" opacity=".92"/>
<ellipse cx="200" cy="108" rx="20" ry="35" fill="url(#p)" opacity=".85" transform="rotate(60 200 158)"/>
<ellipse cx="200" cy="108" rx="20" ry="35" fill="url(#p)" opacity=".85" transform="rotate(120 200 158)"/>
<ellipse cx="200" cy="108" rx="20" ry="35" fill="url(#p)" opacity=".85" transform="rotate(180 200 158)"/>
<ellipse cx="200" cy="108" rx="20" ry="35" fill="url(#p)" opacity=".85" transform="rotate(240 200 158)"/>
<ellipse cx="200" cy="108" rx="20" ry="35" fill="url(#p)" opacity=".85" transform="rotate(300 200 158)"/>
<circle cx="200" cy="158" r="22" fill="#fbbf24"/><circle cx="200" cy="158" r="14" fill="#fde68a"/><circle cx="194" cy="153" r="5" fill="rgba(255,255,255,.4)"/>
<!-- Flower right -->
<rect x="286" y="195" width="5" height="45" rx="2.5" fill="#4ade80"/>
<ellipse cx="298" cy="218" rx="12" ry="6" fill="#16a34a" transform="rotate(35 298 218)"/>
<ellipse cx="200" cy="100" rx="14" ry="25" fill="url(#p)" opacity=".9" transform="rotate(0 255 155)"/>
<ellipse cx="200" cy="100" rx="14" ry="25" fill="url(#p)" opacity=".85" transform="rotate(60 255 155)"/>
<ellipse cx="200" cy="100" rx="14" ry="25" fill="url(#p)" opacity=".85" transform="rotate(120 255 155)"/>
<ellipse cx="200" cy="100" rx="14" ry="25" fill="url(#p)" opacity=".85" transform="rotate(180 255 155)"/>
<ellipse cx="200" cy="100" rx="14" ry="25" fill="url(#p)" opacity=".85" transform="rotate(240 255 155)"/>
<ellipse cx="200" cy="100" rx="14" ry="25" fill="url(#p)" opacity=".85" transform="rotate(300 255 155)"/>
<circle cx="255" cy="155" r="18" fill="#fbbf24"/><circle cx="255" cy="155" r="11" fill="#fde68a"/><circle cx="250" cy="150" r="4" fill="rgba(255,255,255,.4)"/>
<!-- Label -->
<rect x="110" y="262" width="180" height="26" rx="13" fill="rgba(124,58,237,.1)"/>
<text x="200" y="280" text-anchor="middle" font-family="Arial,sans-serif" font-size="12" font-weight="700" fill="#7c3aed">Pieza de EVA · Sthefany R.</text>
</svg>
