<svg xmlns="http://www.w3.org/2000/svg" viewBox="0 0 400 300" width="400" height="300"><defs><radialGradient id="bg" cx="50%" cy="40%" r="70%"><stop offset="0%" stop-color="#fff7ed"/><stop offset="100%" stop-color="#ffedd5"/></radialGradient><radialGradient id="p" cx="35%" cy="30%" r="80%"><stop offset="0%" stop-color="#fdba74"/><stop offset="100%" stop-color="#ea580c"/></radialGradient></defs>
<rect width="400" height="300" fill="url(#bg)"/>
<circle cx="30" cy="30" r="8" fill="#fed7aa"/><circle cx="370" cy="30" r="8" fill="#fed7aa"/><circle cx="30" cy="270" r="8" fill="#fed7aa"/><circle cx="370" cy="270" r="8" fill="#fed7aa"/>
<circle cx="80" cy="60" r="5" fill="#fdba74" opacity=".7"/><circle cx="320" cy="60" r="5" fill="#fdba74" opacity=".7"/>
<!-- Bookmark/encuadernação design: decorative star appliqué -->
<!-- Main star -->
<polygon points="200,110 212,145 250,145 220,166 232,202 200,181 168,202 180,166 150,145 188,145" fill="url(#p)" opacity=".9"/>
<!-- Inner star -->
<polygon points="200,124 208,147 232,147 213,160 220,183 200,170 180,183 187,160 168,147 192,147" fill="#fde68a" opacity=".85"/>
<circle cx="200" cy="155" r="14" fill="#fbbf24"/><circle cx="200" cy="155" r="8" fill="#fde68a"/><circle cx="196" cy="151" r="3" fill="rgba(255,255,255,.5)"/>
<!-- Stem -->
<rect x="197" y="210" width="6" height="30" rx="3" fill="#4ade80"/>
<ellipse cx="185" cy="225" rx="13" ry="6" fill="#22c55e" transform="rotate(-30 185 225)"/>
<ellipse cx="215" cy="230" rx="13" ry="6" fill="#16a34a" transform="rotate(30 215 230)"/>
<rect x="100" y="262" width="200" height="26" rx="13" fill="rgba(234,88,12,.1)"/>
<text x="200" y="280" text-anchor="middle" font-family="Arial,sans-serif" font-size="12" font-weight="700" fill="#ea580c">Pieza de EVA · Silvania M.</text>
</svg>
