<svg xmlns="http://www.w3.org/2000/svg" viewBox="0 0 400 300" width="400" height="300"><defs><radialGradient id="bg" cx="50%" cy="40%" r="70%"><stop offset="0%" stop-color="#f0fdf4"/><stop offset="100%" stop-color="#dcfce7"/></radialGradient><radialGradient id="p" cx="35%" cy="30%" r="80%"><stop offset="0%" stop-color="#6ee7b7"/><stop offset="100%" stop-color="#059669"/></radialGradient></defs>
<rect width="400" height="300" fill="url(#bg)"/>
<circle cx="30" cy="30" r="8" fill="#bbf7d0"/><circle cx="370" cy="30" r="8" fill="#bbf7d0"/><circle cx="30" cy="270" r="8" fill="#bbf7d0"/><circle cx="370" cy="270" r="8" fill="#bbf7d0"/>
<circle cx="80" cy="60" r="5" fill="#a7f3d0" opacity=".7"/><circle cx="320" cy="60" r="5" fill="#a7f3d0" opacity=".7"/>
<rect x="197" y="182" width="6" height="52" rx="3" fill="#16a34a"/>
<ellipse cx="185" cy="210" rx="14" ry="7" fill="#22c55e" transform="rotate(-35 185 210)"/>
<ellipse cx="215" cy="218" rx="14" ry="7" fill="#15803d" transform="rotate(35 215 218)"/>
<ellipse cx="200" cy="118" rx="20" ry="34" fill="url(#p)" opacity=".92"/>
<ellipse cx="200" cy="118" rx="20" ry="34" fill="url(#p)" opacity=".86" transform="rotate(60 200 166)"/>
<ellipse cx="200" cy="118" rx="20" ry="34" fill="url(#p)" opacity=".86" transform="rotate(120 200 166)"/>
<ellipse cx="200" cy="118" rx="20" ry="34" fill="url(#p)" opacity=".86" transform="rotate(180 200 166)"/>
<ellipse cx="200" cy="118" rx="20" ry="34" fill="url(#p)" opacity=".86" transform="rotate(240 200 166)"/>
<ellipse cx="200" cy="118" rx="20" ry="34" fill="url(#p)" opacity=".86" transform="rotate(300 200 166)"/>
<circle cx="200" cy="166" r="22" fill="#fbbf24"/><circle cx="200" cy="166" r="14" fill="#fde68a"/><circle cx="194" cy="161" r="5" fill="rgba(255,255,255,.4)"/>
<rect x="100" y="262" width="200" height="26" rx="13" fill="rgba(5,150,105,.1)"/>
<text x="200" y="280" text-anchor="middle" font-family="Arial,sans-serif" font-size="12" font-weight="700" fill="#059669">Pieza de EVA · María Cristina A.</text>
</svg>
