<svg xmlns="http://www.w3.org/2000/svg" viewBox="0 0 400 300" width="400" height="300"><defs><radialGradient id="bg" cx="50%" cy="40%" r="70%"><stop offset="0%" stop-color="#fff0f6"/><stop offset="100%" stop-color="#fce7f3"/></radialGradient><radialGradient id="p" cx="35%" cy="30%" r="80%"><stop offset="0%" stop-color="#f9a8d4"/><stop offset="100%" stop-color="#db2777"/></radialGradient></defs>
<rect width="400" height="300" fill="url(#bg)"/>
<!-- decorative dots bg -->
<circle cx="30" cy="30" r="8" fill="#fce7f3"/><circle cx="370" cy="30" r="8" fill="#fce7f3"/><circle cx="30" cy="270" r="8" fill="#fce7f3"/><circle cx="370" cy="270" r="8" fill="#fce7f3"/>
<circle cx="80" cy="60" r="5" fill="#fbcfe8" opacity=".7"/><circle cx="320" cy="60" r="5" fill="#fbcfe8" opacity=".7"/><circle cx="60" cy="240" r="5" fill="#fbcfe8" opacity=".7"/><circle cx="340" cy="240" r="5" fill="#fbcfe8" opacity=".7"/>
<!-- Stem -->
<rect x="197" y="178" width="6" height="55" rx="3" fill="#4ade80"/>
<!-- Leaves -->
<ellipse cx="186" cy="210" rx="14" ry="7" fill="#22c55e" transform="rotate(-35 186 210)"/>
<ellipse cx="214" cy="218" rx="14" ry="7" fill="#16a34a" transform="rotate(35 214 218)"/>
<!-- 6 petals -->
<ellipse cx="200" cy="120" rx="18" ry="32" fill="url(#p)" opacity=".92"/>
<ellipse cx="200" cy="120" rx="18" ry="32" fill="url(#p)" opacity=".85" transform="rotate(60 200 165)"/>
<ellipse cx="200" cy="120" rx="18" ry="32" fill="url(#p)" opacity=".85" transform="rotate(120 200 165)"/>
<ellipse cx="200" cy="120" rx="18" ry="32" fill="url(#p)" opacity=".85" transform="rotate(180 200 165)"/>
<ellipse cx="200" cy="120" rx="18" ry="32" fill="url(#p)" opacity=".85" transform="rotate(240 200 165)"/>
<ellipse cx="200" cy="120" rx="18" ry="32" fill="url(#p)" opacity=".85" transform="rotate(300 200 165)"/>
<!-- Center -->
<circle cx="200" cy="165" r="22" fill="#fbbf24"/>
<circle cx="200" cy="165" r="14" fill="#fde68a"/>
<circle cx="194" cy="160" r="5" fill="rgba(255,255,255,.4)"/>
<!-- Label -->
<rect x="120" y="262" width="160" height="26" rx="13" fill="rgba(219,39,119,.1)"/>
<text x="200" y="280" text-anchor="middle" font-family="Arial,sans-serif" font-size="12" font-weight="700" fill="#be185d">Pieza de EVA · Cassia M.</text>
</svg>
